<svg width="33" height="32" viewBox="0 0 33 32" fill="none" xmlns="http://www.w3.org/2000/svg">
<path d="M11 29C12.1046 29 13 28.1046 13 27C13 25.8954 12.1046 25 11 25C9.89543 25 9 25.8954 9 27C9 28.1046 9.89543 29 11 29Z" fill="black"/>
<path d="M24 29C25.1046 29 26 28.1046 26 27C26 25.8954 25.1046 25 24 25C22.8954 25 22 25.8954 22 27C22 28.1046 22.8954 29 24 29Z" fill="black"/>
<path d="M6.2875 9H28.7125L25.4125 20.55C25.2948 20.9692 25.0426 21.3381 24.6948 21.6001C24.3471 21.862 23.9229 22.0025 23.4875 22H11.5125C11.0771 22.0025 10.6529 21.862 10.3052 21.6001C9.95738 21.3381 9.70524 20.9692 9.5875 20.55L5.0625 4.725C5.0027 4.51594 4.8764 4.33207 4.70271 4.20125C4.52903 4.07042 4.31744 3.99977 4.1 4H2" stroke="black" stroke-width="2.5" stroke-linecap="round" stroke-linejoin="round"/>
</svg>
