<svg width="48" height="48" viewBox="0 0 48 48" fill="none" xmlns="http://www.w3.org/2000/svg">
<path fill-rule="evenodd" clip-rule="evenodd" d="M32 6H16C10.4772 6 6 10.4772 6 16V32C6 37.5228 10.4772 42 16 42H32C37.5228 42 42 37.5228 42 32V16C42 10.4772 37.5228 6 32 6ZM38.5 32C38.489 35.5852 35.5852 38.489 32 38.5H16C12.4147 38.489 9.51098 35.5852 9.5 32V16C9.51098 12.4147 12.4147 9.51098 16 9.5H32C35.5852 9.51098 38.489 12.4147 38.5 16V32ZM33.5 16.5C34.6046 16.5 35.5 15.6046 35.5 14.5C35.5 13.3954 34.6046 12.5 33.5 12.5C32.3954 12.5 31.5 13.3954 31.5 14.5C31.5 15.6046 32.3954 16.5 33.5 16.5ZM24 15C19.0294 15 15 19.0294 15 24C15 28.9706 19.0294 33 24 33C28.9706 33 33 28.9706 33 24C33.0054 21.6114 32.0588 19.3191 30.3698 17.6302C28.6808 15.9412 26.3886 14.9947 24 15ZM18.5 24C18.5 27.0376 20.9624 29.5 24 29.5C27.0376 29.5 29.5 27.0376 29.5 24C29.5 20.9624 27.0376 18.5 24 18.5C20.9624 18.5 18.5 20.9624 18.5 24Z" fill="#F2E6D0"/>
</svg>
