<svg width="48" height="48" viewBox="0 0 48 48" fill="none" xmlns="http://www.w3.org/2000/svg">
<path d="M36.0151 13.6991C35.7659 13.5735 35.5233 13.4359 35.2883 13.2866C34.6046 12.846 33.978 12.3268 33.4214 11.7402C32.0293 10.1871 31.5093 8.61137 31.3178 7.50817H31.3255C31.1656 6.59247 31.2316 6 31.2417 6H24.9008V29.9073C24.9008 30.2283 24.9008 30.5455 24.8869 30.8591C24.8869 30.8979 24.8831 30.934 24.8808 30.976C24.8808 30.9933 24.8808 31.0112 24.8769 31.0294C24.8769 31.0338 24.8769 31.0383 24.8769 31.0428C24.8101 31.9006 24.5281 32.7291 24.0557 33.4557C23.5833 34.1823 22.9351 34.7847 22.168 35.2096C21.3685 35.6531 20.4642 35.8857 19.5444 35.8846C16.59 35.8846 14.1956 33.5357 14.1956 30.6347C14.1956 27.7339 16.59 25.385 19.5444 25.385C20.1036 25.3845 20.6594 25.4704 21.1911 25.6393L21.1988 19.3441C19.5846 19.1408 17.9448 19.2659 16.3827 19.7114C14.8205 20.157 13.3701 20.9134 12.1228 21.933C11.0299 22.8589 10.111 23.9636 9.40765 25.1976C9.13997 25.6475 8.13007 27.4558 8.00778 30.3902C7.93087 32.0559 8.4439 33.7816 8.68849 34.4948V34.5099C8.84232 34.9298 9.43842 36.3631 10.4099 37.5711C11.1932 38.5405 12.1187 39.3916 13.1565 40.0979V40.0828L13.1719 40.0979C16.2416 42.1317 19.6451 41.9982 19.6451 41.9982C20.2343 41.975 22.208 41.9982 24.4493 40.9625C26.9352 39.8144 28.3505 38.1036 28.3505 38.1036C29.2545 37.0815 29.9734 35.9166 30.4764 34.659C31.0503 33.1884 31.2417 31.4244 31.2417 30.7196V18.0362C31.3187 18.0811 32.3431 18.7419 32.3431 18.7419C32.3431 18.7419 33.8192 19.6643 36.1221 20.265C37.7741 20.6925 40 20.7825 40 20.7825V14.6448C39.2203 14.7273 37.6365 14.4873 36.0151 13.6991Z" fill="#F2E6D0"/>
</svg>
